<svg width="85" height="42" fill="none" xmlns="http://www.w3.org/2000/svg"><path d="M13 13c-2 0-4 2-4 4s2 4 4 4c3 0 4-2 4-4s-1-4-4-4Z" fill="#AFB1B8"/>fill=&quot;#AFB1B8&quot; /&gt;<path d="M45 12c0-3-1-6-3-8l-9-3c-4 0-7 1-9 3-3 2-4 5-4 8v16s25-2 25-16ZM0 34c0 2 1 4 3 5l6 2 6-2c2-1 2-3 2-5V22S0 24 0 34Zm9 2-2-1v-1l-1-1 1-1h4a2 2 0 0 1-1 3l-1 1ZM26 34h-1v2h-1v-4h3v1h-2v1h1Zm5 0-1 1a2 2 0 0 1-1 1h-1l-1-1v-2a2 2 0 0 1 2-1h1v1l1 1Zm-1 0v-1h-2v2l1 1 1-1v-1Zm3 1v-1h-1l-1-1v-1h3v1h-2l1 1h1v2h-3v-1h1l1 1v-1Zm5-2h-1v3h-1v-3h-1v-1h3v1Zm3 1h-1v2h2-3v-4h3v1h-2v1h1Zm3 1h-1v1h-1v-4h3v2h-1l1 2h-1v-1Zm-1-1h1v-1h-1v1Zm5 1v1h-1v-4h3v1h1l-1 1-1 1h-1Zm0-1h2v-1h-2v1Zm6 0h-2v2h2-3v-4h3v1h-2v1h2Zm4-1h-1v3h-1v-3h-2v-1h4v1Zm3 1h-2v2h2-3v-4h3v1h-2v1h2Zm2 1v1h-1v-4h3v2h-1l1 2h-1l-1-1Zm0-1h1v-1h-1v1Zm5 1-1-1h-1v-2h2l1 1h-3 1v1h1l1 1-1 1h-2l-1-1h1l1 1 1-1Z" fill="#AFB1B8"/></svg>