<svg xmlns="http://www.w3.org/2000/svg" aria-hidden="true" overflow="hidden" style="position:absolute;width:0;height:0"
    version="1.1">
    <defs>
        <symbol id="icon-antenna" viewBox="0 0 32 32">
            <path
                d="m30.773 22.098-8.443-8.505.937-4.616c.225.09.485.144.758.146h.033a2.16 2.16 0 1 0-2.029-1.42l-.005-.015-4.96.606L8.973.161A.53.53 0 0 0 8.597 0a.531.531 0 0 0-.373.155L6.712 1.66a.535.535 0 0 0 0 .754l.814.825C6.383 5.301 5.71 7.761 5.71 10.38c0 4.105 1.656 7.823 4.336 10.524a.49.49 0 0 0 .145.096 2.986 2.986 0 0 0-.05.546v6.188h-6.4A2.669 2.669 0 0 0 1.08 30.4v1.067a.533.533 0 0 0 .533.534h24.53a.534.534 0 0 0 .533-.534V30.4a2.67 2.67 0 0 0-2.666-2.666h-6.4v-2.741a14.784 14.784 0 0 0 10.166-1.503l-.077.039.818.823a.534.534 0 0 0 .376.16.536.536 0 0 0 .372-.155l1.512-1.504a.535.535 0 0 0 0-.754zM23.28 6.233a1.067 1.067 0 1 1 .752 1.822h-.004a1.066 1.066 0 0 1-.747-1.822h-.002zm-1.256 3.504-.598 2.946-1.175-1.183 1.785-1.763zm-.605-.902-1.92 1.909-1.49-1.493 3.4-.416zM24.004 28.8a1.6 1.6 0 0 1 1.6 1.6v.534H2.138V30.4a1.6 1.6 0 0 1 1.6-1.6h20.267zm-7.466-2.134v1.067h-5.334v-1.067h5.334zM11.204 25.6v-4.053c0-1.294 1.196-2.346 2.667-2.346s2.667 1.053 2.667 2.346V25.6h-5.334zm6.4-1.696v-2.357c0-1.882-1.675-3.413-3.733-3.413h-.05c-1.351 0-2.54.707-3.211 1.771l-.01.016a13.817 13.817 0 0 1-3.81-9.55c0-2.31.567-4.49 1.569-6.41l-.035.08 18.6 18.71c-1.823.947-3.98 1.502-6.267 1.502-1.078 0-2.128-.123-3.135-.356l.093.018zm11.29-.684L7.835 2.04l.754-.752 7.935 7.98c.004 0 .006.006.01.01l13.114 13.189-.757.753z"
                fill="var(--color1, #212121)" />
            <path
                d="M13.876 20.267h-.006a1.6 1.6 0 0 0-.003 3.2h.007a1.6 1.6 0 0 0 .002-3.2zm.373 1.978a.534.534 0 1 1-.378-.912.533.533 0 0 1 .375.911h.005z"
                fill="var(--color2, #2196f3)" />
        </symbol>
        <symbol id="icon-astronaut" viewBox="0 0 32 32">
            <path
                d="M31.974 4.524a.535.535 0 0 0-.427-.362h-.003l-1.911-.278-.855-1.731c-.178-.365-.777-.365-.955 0l-.855 1.73-1.911.279a.533.533 0 0 0-.296.91l1.383 1.348-.326 1.903a.532.532 0 0 0 .774.562l1.709-.9 1.709.9a.534.534 0 0 0 .773-.565v.003l-.326-1.903 1.383-1.348a.535.535 0 0 0 .134-.55v.004zm-2.463 1.327a.53.53 0 0 0-.153.472l.191 1.114-1-.53a.525.525 0 0 0-.5 0h.002l-1 .527.191-1.114a.53.53 0 0 0-.152-.472l-.811-.79 1.119-.162a.532.532 0 0 0 .402-.292l.5-1.013.5 1.013a.536.536 0 0 0 .402.293l1.119.162-.81.79zm-3.377 14.671h-1.067v1.067h1.067v-1.067zm0 2.134h-1.067v1.061h1.067v-1.065zm1.066-1.072h-1.067v1.067H27.2v-1.065zm-2.133 0H24v1.067h1.067v-1.065zM22.4 26.389h-1.067v1.067H22.4v-1.069zm0 2.134h-1.067v1.067H22.4v-1.067zm1.067-1.067H22.4v1.067h1.067v-1.067zm-2.133 0h-1.067v1.067h1.067v-1.067zM16 24.256h-1.066v1.067H16v-1.067zm0 2.134h-1.066v1.067H16V26.39zm1.067-1.067H16v1.067h1.067v-1.067zm-2.133 0h-1.067v1.067h1.067v-1.067zM5.867 6.122H4.8v1.067h1.066V6.123zm0 2.134H4.801v1.066h1.066V8.256zm1.066-1.067H5.866v1.067h1.066V7.189zm-2.133 0H3.733v1.067H4.8V7.189z"
                fill="var(--color2, #2196f3)" />
            <path
                d="M24.715 14.16a1.776 1.776 0 0 0-1.179-.703l-.009-.001a1.77 1.77 0 0 0-1.344.355l.004-.003-1.253.96-1.898 1.417-1.358-.54c2.421-1.087 4.113-3.509 4.113-6.32 0-3.824-3.122-6.935-6.961-6.935S7.869 5.5 7.869 9.324a6.88 6.88 0 0 0 1.12 3.76l-2.768-.025c-.009 0-.016.005-.023.005a.511.511 0 0 0-.159.033c-.019.004-.03.006-.04.012-.01.003-.017.003-.02.006L2.75 14.71v.001l-1.894.91a.5.5 0 0 0-.069.036H.79a1.782 1.782 0 0 0-.59 2.305l-.005-.01c.22.424.592.742 1.043.885l.013.003a1.765 1.765 0 0 0 1.388-.133l-.009.005 1.388-.738 2.264-1.169 1.357-.008-5.441 5.416v.001l-1.34 1.333a1.643 1.643 0 0 0-.49 1.173v.005a1.668 1.668 0 0 0 1.666 1.664l.002-.011a1.67 1.67 0 0 0 1.18-.484l1.314-1.31 1.741-1.3.901.898L4.07 27.27a1.643 1.643 0 0 0-.491 1.173v.004a1.667 1.667 0 0 0 1.666 1.664h.004a1.67 1.67 0 0 0 1.18-.485l3.482-3.47 1.01-1-.005-.004c.007-.006.016-.01.022-.016l5.166-5.658 3.47.494a.474.474 0 0 0 .263-.03c.017-.007.032-.016.049-.024.023-.01.04-.015.059-.027l3.214-2.133c.014-.008.018-.02.032-.03.012-.01.028-.014.04-.026l1.27-1.19a1.777 1.777 0 0 0 .21-2.366l.01.005zM2.13 17.77a.705.705 0 0 1-.562.05h.005a.717.717 0 0 1-.215-1.257l.002-.001 1.314-.632.316.924.133.389-.992.527zm3.497-1.828-1.548.8-.255-.746-.184-.537 2.027-1.001-.04 1.484zm15.1-6.62c0 .919-.22 1.785-.6 2.56l-4.18-1.9a1.865 1.865 0 0 0-.782-1.384l-.006-.004 1.463-4.861c2.377.757 4.1 2.975 4.1 5.588zm-11.79 0c0-3.235 2.645-5.867 5.895-5.867.253 0 .5.022.745.053l-1.432 4.753c-.02 0-.037-.005-.057-.005h-.001a1.872 1.872 0 0 0-1.872 1.867 1.873 1.873 0 0 0 1.872 1.867c.696 0 1.296-.383 1.619-.944l3.863 1.751a5.893 5.893 0 0 1-4.737 2.389c-3.25 0-5.894-2.632-5.894-5.867zm5.958.8a.805.805 0 0 1-.805.8h-.003a.804.804 0 0 1-.804-.8c0-.441.36-.8.806-.8s.806.359.806.8zM2.464 25.146a.606.606 0 0 1-.855 0 .591.591 0 0 1 0-.843l.962-.96.863.849-.96.954zm3.214 3.734a.606.606 0 0 1-.855 0 .591.591 0 0 1 0-.843l.965-.96.402.4.451.448-.96.955zm3.482-3.47-.001.002-1.765 1.76-.852-.848 1.765-1.757a.527.527 0 0 0 .09-.136c.007-.014.02-.026.026-.04.016-.04.019-.085.026-.128.003-.025.014-.048.014-.073 0-.036-.013-.07-.02-.105-.006-.032-.006-.065-.018-.096a.514.514 0 0 0-.092-.137c-.011-.012-.014-.027-.025-.038h-.001l-.001-.002-1.607-1.6c-.017-.017-.04-.024-.058-.038a.491.491 0 0 0-.084-.056h-.003a.528.528 0 0 0-.09-.037H6.46a.502.502 0 0 0-.101-.02h-.025a.603.603 0 0 0-.075.004h.003a.517.517 0 0 0-.108.022h.004a.452.452 0 0 0-.094.044c-.02.01-.043.015-.061.03l-1.774 1.324-.901-.897 2.4-2.386 4.36 4.29-.929.918zm6.819-7.016c-.016-.002-.03.004-.046.003h-.027a.562.562 0 0 0-.092.007h.003a.484.484 0 0 0-.187.07h.002a.492.492 0 0 0-.083.06c-.013.011-.028.016-.04.03l-4.698 5.145-4.328-4.256 2.833-2.818a.535.535 0 0 0-.378-.91h-.002l-2.219.012.028-1.607 3.104.027a6.928 6.928 0 0 0 4.978 2.1h.003c.438 0 .864-.045 1.28-.12a.55.55 0 0 0 .13.084l2.41.96.151.758.178.886-3.003-.427zm4.041.178-.313-1.558 1.446-1.08.946 1.257-2.08 1.381zm3.753-2.83-.837.784-.931-1.234.831-.635a.73.73 0 0 1 .543-.143.717.717 0 0 1 .398 1.231z"
                fill="var(--color1, #212121)" />
            <path
                d="m13.602 18.544-2.143-2.134a.53.53 0 0 0-.752 0l-2.143 2.133a.535.535 0 0 0 0 .756l2.142 2.134a.53.53 0 0 0 .752 0l2.143-2.134a.532.532 0 0 0 0-.756zm-2.519 1.76-1.387-1.382 1.386-1.381 1.387 1.381-1.398 1.381zM17.164 5.07l-.258 1.036c.071.018 1.738.452 1.738 2.149h1.067c0-2.017-1.666-2.965-2.547-3.184zm2.547 4.252h-1.067v1.066h1.067V9.322z"
                fill="var(--color1, #212121)" />
        </symbol>
        <symbol id="icon-client1" viewBox="0 0 32 32">
            <path
                d="M6.128 0 10.9 4.517l-8.858-.005v21.915h23.149v-8.379l4.766 4.512V.001H6.127zm18.854 17.517L11.454 4.71h13.528v12.807zm-4.2 5.703H5.706V8.483h1.066v13.74h14.011v.997zM9.266 29.345l-.557 1.147-.557-1.147h-.467l.813 1.529v.892h.422v-.892l.812-1.529h-.466zm.7 2.42.196-.564h.938l.197.564h.439l-.916-2.42h-.378l-.914 2.42h.437zm.665-1.906.351 1.004h-.701l.35-1.004zm2.217.946a.544.544 0 0 0-.091.303v.003c0 .204.072.37.214.497s.336.191.575.191c.24 0 .445-.066.618-.195l.136.161h.468l-.355-.42c.14-.192.209-.436.209-.734h-.351a.973.973 0 0 1-.101.454l-.468-.553.165-.119a.922.922 0 0 0 .249-.249l.002-.004a.53.53 0 0 0 .076-.275v-.013a.5.5 0 0 0-.17-.375.61.61 0 0 0-.409-.157h-.024.001c-.195 0-.35.056-.465.166s-.173.26-.173.45c.002.087.021.17.056.244l-.002-.004c.038.083.104.184.197.302-.18.13-.3.24-.361.334zm1.092.535a.613.613 0 0 1-.382.136h-.019c-.105 0-.2-.04-.27-.106a.36.36 0 0 1-.109-.26v-.013c0-.128.067-.244.2-.345l.052-.037.528.624zm-.433-1.073c-.114-.14-.172-.257-.172-.35 0-.082.024-.149.07-.202a.239.239 0 0 1 .178-.08h.018c.068 0 .128.025.174.067a.214.214 0 0 1 .072.161v.01c0 .09-.039.17-.102.224l-.052.041-.184.125zm3.94 1.315c.165-.145.26-.347.285-.605h-.419c-.024.173-.075.296-.16.37-.083.075-.208.112-.372.112-.18 0-.318-.069-.412-.206s-.14-.337-.14-.599v-.214c.002-.259.052-.453.15-.587s.239-.2.422-.2c.157 0 .276.04.357.116.082.075.133.201.153.373h.418c-.027-.264-.121-.47-.285-.614s-.378-.218-.645-.218a.98.98 0 0 0-.526.142.925.925 0 0 0-.345.396l-.002.006a1.396 1.396 0 0 0-.122.576v.255c.003.223.045.418.125.587s.193.298.339.39a.955.955 0 0 0 .51.136c.277 0 .498-.072.664-.216zm2.471-.34c.082-.18.123-.387.123-.624v-.158c0-.216-.047-.42-.13-.605l.003.01a.932.932 0 0 0-.35-.407l-.004-.002a.952.952 0 0 0-.505-.143h-.019.001a.965.965 0 0 0-.526.145.939.939 0 0 0-.354.414c-.079.175-.125.38-.125.595v.032-.002.136c.001.231.043.436.126.613a.968.968 0 0 0 .356.411.98.98 0 0 0 .525.143.971.971 0 0 0 .526-.143.941.941 0 0 0 .352-.413zm-.45-1.368c.102.143.152.35.152.618v.126c0 .272-.05.48-.15.622a.488.488 0 0 1-.43.213h-.017a.503.503 0 0 1-.413-.216v-.002c-.105-.145-.156-.35-.156-.617v-.14c.002-.26.054-.462.156-.603a.498.498 0 0 1 .41-.215h.017c.186 0 .33.072.43.214z" />
        </symbol>
        <symbol id="icon-client2" viewBox="0 0 32 32">
            <path
                d="M14.224 1.806h-.084a9.985 9.985 0 0 0-.388-.014h-.28c-.244 0-.494.006-.74.018l-.029-.001h-.029.001A17.353 17.353 0 0 0 6.1 3.496l.103-.044-.266.128v13.63L6.56 17a23.32 23.32 0 0 1 1.731-.513c1.488-.398 3.202-.638 4.967-.661h.014v1.79c-.234.001-.463.008-.69.02l.034-.002h-.052a20.05 20.05 0 0 0-3.97.619l.138-.031a19.399 19.399 0 0 0-4.666 1.83l.1-.05V2.528A17.896 17.896 0 0 1 8.831.609l.127-.03a17.862 17.862 0 0 1 4.51-.581h.267c.314.008.622.022.91.044.829.06 1.597.187 2.339.378l-.09-.02v1.762a13.17 13.17 0 0 0-2.134-.326l-.045-.003-.044-.004c-.152-.013-.304-.026-.446-.026zm3.1 1.801c.392.031.797.044 1.206.044a19.36 19.36 0 0 0 4.885-.64l-.135.041a19.502 19.502 0 0 0 4.66-1.83l-.1.05v17.16a17.972 17.972 0 0 1-4.664 1.92l-.127.028a17.962 17.962 0 0 1-4.511.58h-.115c-1.177 0-2.32-.146-3.41-.424l.096.02V3.276c.265.062.537.117.814.164.455.077.934.133 1.4.167zm8.736.133-.623.209a19.98 19.98 0 0 1-1.541.47l-.19.04c-1.551.413-3.332.655-5.17.661h-.003c-.406 0-.78-.012-1.141-.035l-.497-.033v14.02l.426.037c.406.035.814.052 1.225.052a16.554 16.554 0 0 0 4.19-.553l-.118.026a16.96 16.96 0 0 0 3.285-1.19l-.102.046.266-.128V3.739zM5.377 25.977a.916.916 0 0 0-.661-.28h-.034.002-.014c-.14 0-.272.028-.393.078l.007-.003a.904.904 0 0 0-.51.512l-.002.006a1.001 1.001 0 0 0-.071.386v2.334a1.12 1.12 0 0 0 .1.48.92.92 0 0 0 .235.312.817.817 0 0 0 .32.166c.113.031.23.045.348.045a.985.985 0 0 0 .968-.982v-.26H5.06v.232c0 .07-.013.136-.037.198v-.004a.392.392 0 0 1-.087.132.426.426 0 0 1-.255.09.313.313 0 0 1-.282-.125v-.003a.546.546 0 0 1-.083-.29v-.024.001V26.8a.74.74 0 0 1 .075-.349.31.31 0 0 1 .262-.143l.038.002H4.69h.012c.107 0 .2.052.26.131v.001a.496.496 0 0 1 .103.301v.215h.604v-.25c0-.143-.027-.28-.077-.404l.003.007a.955.955 0 0 0-.205-.329zm3.625-.027a1.08 1.08 0 0 0-.695-.258h-.005c-.13 0-.254.023-.37.066l.008-.002a.961.961 0 0 0-.553.515l-.002.006a1.075 1.075 0 0 0-.09.451v2.24c-.003.157.027.314.09.458a.916.916 0 0 0 .237.314.981.981 0 0 0 .322.197 1.05 1.05 0 0 0 1.06-.197l-.002.001a.947.947 0 0 0 .228-.308l.002-.006c.063-.144.093-.3.09-.458v-2.26a1.09 1.09 0 0 0-.093-.44h.003a1.016 1.016 0 0 0-.23-.327v.002zm-.288 3.016V29a.4.4 0 0 1-.122.289.446.446 0 0 1-.575 0l.001.001a.4.4 0 0 1-.123-.289c0-.002 0-.014.002-.027v.001-2.238l-.001-.034a.4.4 0 0 1 .123-.289.446.446 0 0 1 .575.001h-.001a.398.398 0 0 1 .12.325v-.002 2.24zm5.047.999v-4.236h-.586l-.771 2.244h-.01l-.775-2.244h-.582v4.239h.606V27.39h.01l.594 1.823h.302l.598-1.823h.01v2.578h.606zm3.44-3.942a.832.832 0 0 0-.336-.23l-.006-.002a1.31 1.31 0 0 0-.416-.066h-.024.001-.9v4.24h.604V28.31h.311a1.104 1.104 0 0 0 .552-.119l-.006.003a.89.89 0 0 0 .341-.32l.001-.004a.999.999 0 0 0 .137-.363l.001-.006c.021-.133.033-.287.033-.444v-.039.002a2.426 2.426 0 0 0-.059-.606.906.906 0 0 0-.222-.39zm-.31 1.293a.531.531 0 0 1-.058.225l.001-.003a.342.342 0 0 1-.154.147l-.002.001a.608.608 0 0 1-.252.054l-.034-.001h.002-.276v-1.441h.311l.03-.001a.58.58 0 0 1 .246.055l-.004-.002a.35.35 0 0 1 .152.154v.002c.032.069.051.15.053.236v.283c0 .098.006.201 0 .291H16.9zm3.172-1.59h-.494l-.934 4.238h.604l.177-.911h.823l.178.91h.604l-.958-4.238zm-.558 2.751.297-1.537h.011l.295 1.537h-.603zm4.461-.197h-.011l-.912-2.554h-.58v4.238h.603v-2.549h.012l.923 2.55h.58v-4.24h-.605v2.554zm3.69-2.554-.485 1.684h-.012l-.486-1.685h-.635l.83 2.447v1.791h.604v-1.79l.83-2.449h-.64zm-23.964 5.44h.291v.817h.198v-.817h.29V31h-.779v.168zm2.448-.168-.382.985h.21l.081-.222h.392l.084.224h.215L6.35 31h-.21zm-.03.596.133-.365.134.36H6.11zm2.448.027h.228v.127a.372.372 0 0 1-.234.082H8.54a.25.25 0 0 1-.195-.094.406.406 0 0 1-.074-.236v-.022c.002-.218.098-.328.286-.328h.022c.097 0 .178.066.2.156l.195-.037c-.042-.2-.18-.29-.417-.29H8.54a.492.492 0 0 0-.33.12.48.48 0 0 0-.144.34v.038-.002.021c0 .132.049.253.129.347h-.001c.087.09.209.145.343.145h.032-.001.016a.59.59 0 0 0 .402-.158v-.387H8.56v.166zm2.472-.62h-.199v.993h.69v-.167h-.484v-.82zm2.09.007h-.2v.985h.2v-.99zm2.041.658-.404-.66h-.193v.985h.185v-.642l.396.643h.198v-.99h-.182v.657zm1.846-.108h.49v-.167h-.49v-.215h.527v-.17h-.727v.986h.747v-.166h-.548v-.266zm4.477-.162h-.388v-.39H20.9v.984h.197v-.43h.388v.43h.198V31h-.198v.384zm1.858.162h.492v-.167h-.492v-.215h.53v-.17h-.727v.986h.746v-.166h-.548v-.266zm2.518 0c.171-.026.258-.117.258-.273a.23.23 0 0 0-.096-.219.555.555 0 0 0-.25-.059l-.04.003h.002-.417v.985h.198v-.412h.055c.04 0 .076.008.11.023h-.003a.207.207 0 0 1 .07.07v.001l.216.313h.236l-.12-.19a.704.704 0 0 0-.215-.236l-.002-.002zm-.199-.135h-.139v-.247h.155a.515.515 0 0 1 .205.024h-.003a.13.13 0 0 1-.01.2h.003a.537.537 0 0 1-.164.024h-.04.003zm2.106.135h.49v-.167h-.489v-.215h.53v-.17h-.73v.986h.751v-.166h-.548v-.266z" />
        </symbol>
        <symbol id="icon-client3" viewBox="0 0 32 32">
            <path
                d="M5.266 30.294a.1.1 0 0 1 .06.024l.156.148c-.121.12-.27.216-.437.282a1.669 1.669 0 0 1-.57.098l-.051-.001h.003-.032a1.62 1.62 0 0 1-.56-.099l.01.004a1.275 1.275 0 0 1-.438-.267v.001a1.202 1.202 0 0 1-.28-.402l-.003-.008a1.337 1.337 0 0 1-.1-.511v-.017.001-.027c0-.362.158-.688.408-.912.133-.116.292-.207.466-.268.19-.064.395-.096.599-.094h.037c.186 0 .364.031.53.09l-.011-.004c.154.06.295.14.417.24l-.13.158a.112.112 0 0 1-.033.028h-.001a.087.087 0 0 1-.045.012h-.007a.127.127 0 0 1-.058-.017l-.068-.043-.097-.054a1.074 1.074 0 0 0-.3-.093h-.006a1.298 1.298 0 0 0-.214-.018h-.03a1.25 1.25 0 0 0-.42.074l.01-.01a.998.998 0 0 0-.34.2h.005a.905.905 0 0 0-.22.312 1.05 1.05 0 0 0-.077.403v.031c-.001.147.028.287.08.414l-.002-.008a.894.894 0 0 0 .536.511c.127.047.262.07.399.07h.013c.079 0 .156-.006.232-.016h-.01a.934.934 0 0 0 .514-.218l-.001.001a.123.123 0 0 1 .073-.027zm4.479-.745v.016c0 .184-.039.358-.108.517l.003-.008a1.154 1.154 0 0 1-.29.406 1.342 1.342 0 0 1-.45.265l-.009.003a1.91 1.91 0 0 1-1.192-.004l.013.004a1.373 1.373 0 0 1-.456-.27 1.193 1.193 0 0 1-.29-.402l-.004-.008a1.354 1.354 0 0 1 .003-1.057l-.003.008c.07-.162.17-.299.29-.412h.002a1.34 1.34 0 0 1 .456-.259 1.856 1.856 0 0 1 1.192.004l-.013-.004c.172.06.328.151.457.267a1.2 1.2 0 0 1 .293.406c.072.179.107.35.105.53zm-.407 0v-.022a1.1 1.1 0 0 0-.077-.407l.003.008a.87.87 0 0 0-.529-.512l-.006-.002a1.35 1.35 0 0 0-.866.003l.01-.003a.92.92 0 0 0-.327.2.843.843 0 0 0-.206.309l-.002.006a1.228 1.228 0 0 0 .003.85l-.003-.01a.864.864 0 0 0 .532.51h.006c.276.09.58.09.857 0a.912.912 0 0 0 .327-.2.888.888 0 0 0 .208-.317c.052-.135.077-.278.074-.42zm3.463.44.05.096.045-.094a.713.713 0 0 1 .053-.096l-.002.004.992-1.565c.02-.027.037-.044.057-.05s.044-.008.068-.008h.306v2.546h-.346v-1.996a.74.74 0 0 1 0-.046v.002l-.996 1.587a.144.144 0 0 1-.058.057.177.177 0 0 1-.085.02h-.06a.17.17 0 0 1-.085-.021.136.136 0 0 1-.056-.057v-.001l-1.03-1.597v2.044h-.337v-2.54h.306c.025 0 .049.003.07.009h-.001a.11.11 0 0 1 .055.049l1.012 1.567a.528.528 0 0 1 .05.088v.003zm3.738-.124v.953h-.387v-2.541h.865a1.86 1.86 0 0 1 .483.055.954.954 0 0 1 .341.159.666.666 0 0 1 .191.245l.002.004a.77.77 0 0 1 .066.326v.016a.71.71 0 0 1-.278.563h-.003a.998.998 0 0 1-.343.169 1.585 1.585 0 0 1-.436.059h-.032l-.468-.007zm0-.274h.47a1.13 1.13 0 0 0 .3-.027.642.642 0 0 0 .218-.11h-.002a.487.487 0 0 0 .177-.378v-.007l.001-.027a.425.425 0 0 0-.04-.182v.003a.5.5 0 0 0-.136-.173.827.827 0 0 0-.462-.14L17 28.55h-.469v1.047zm5.212 1.242h-.312a.141.141 0 0 1-.08-.026.162.162 0 0 1-.049-.06v-.003l-.263-.614H19.72l-.273.614a.147.147 0 0 1-.13.083H19l1.163-2.545h.403l1.179 2.545zm-1.92-.947h1.096l-.462-1.036a1.693 1.693 0 0 1-.084-.226l-.003-.012-.045.133a.899.899 0 0 1-.043.108l-.457 1.034zm3.596-1.588a.168.168 0 0 1 .057.044l1.698 1.918V28.28h.347v2.546h-.194l-.004.001a.191.191 0 0 1-.076-.016.208.208 0 0 1-.06-.047l-1.696-1.916v.088-.002 1.892h-.347V28.28h.206a.21.21 0 0 1 .07.012zm4.96 1.52v1.01h-.389v-1.01l-1.072-1.536h.355c.028 0 .054.008.075.022a.243.243 0 0 1 .052.058l.671.988a1.116 1.116 0 0 1 .121.226l.05-.11a.958.958 0 0 1 .064-.115l.66-.996a.281.281 0 0 1 .05-.054.127.127 0 0 1 .076-.026h.36l-1.075 1.54zm-15.77-5.807c.17.018.341.033.513.047 2.616-1.017 4.83-2.68 6.363-4.784s2.32-4.554 2.26-7.044l-2.888-2.51c.588 2.65.314 5.39-.79 7.914s-2.994 4.73-5.459 6.372z" />
            <path
                d="m11.58 23.888.078.014c2.634-1.638 4.641-3.923 5.764-6.562a12.335 12.335 0 0 0 .53-8.242L13.846 5.53c1.66 2.933 2.33 6.215 1.927 9.465-.4 3.25-1.856 6.333-4.196 8.892zm13.926-8.722c-.698 2.735-2.392 5.202-4.832 7.034-.666.507-1.418.982-2.209 1.391l-.086.04c1.987-.507 3.812-1.404 5.337-2.621s2.707-2.723 3.456-4.4l-1.665-1.446z" />
            <path
                d="m24.853 14.763-2.371-2.06c-.046 2.349-.814 4.644-2.226 6.647s-3.416 3.642-5.803 4.745h.011c.533 0 1.066-.028 1.593-.082 2.232-.791 4.203-2.05 5.738-3.664s2.586-3.533 3.06-5.586zM11.922 4.025l-2.829-2.46c-2.529.85-4.703 2.342-6.24 4.282S.49 10.087.483 12.442c.01 2.603 1.018 5.129 2.866 7.177 1.847 2.048 4.428 3.504 7.334 4.134 2.594-2.746 4.113-6.14 4.336-9.687s-.863-7.065-3.098-10.041zm19.466 10.359c-.01-3.088-1.427-6.047-3.94-8.23s-5.919-3.413-9.473-3.423h-.026c-1.709 0-3.351.285-4.882.809l.106-.032 17.32 15.047c.563-1.226.893-2.659.895-4.17v-.001z" />
        </symbol>
        <symbol id="icon-client4" viewBox="0 0 32 32">
            <path
                d="M4.949 13.027h-.001c-.903 0-1.635.65-1.635 1.453s.732 1.454 1.635 1.454c.904 0 1.636-.651 1.636-1.453v-.001c0-.802-.732-1.452-1.635-1.452zm12.066-.465c-.003-1.114-.502-2.182-1.388-2.97S13.54 8.36 12.285 8.358c-1.254.002-2.457.445-3.344 1.233s-1.387 1.856-1.389 2.971v6.145s9.462-.937 9.463-6.144zM0 20.724c.002.776.35 1.519.967 2.067.617.549 1.453.858 2.325.86.872-.002 1.708-.311 2.325-.859s.965-1.291.967-2.066V16.45S0 17.102 0 20.725zm3.292.767a.942.942 0 0 1-.479-.129.792.792 0 0 1-.315-.339l-.002-.005a.685.685 0 0 1-.05-.446l-.001.005a.754.754 0 0 1 .235-.392.89.89 0 0 1 .437-.21l.005-.001a.98.98 0 0 1 .504.045l-.007-.013c.158.059.293.157.387.283s.145.274.145.425v.003a.697.697 0 0 1-.066.296l.002-.004a.76.76 0 0 1-.186.249.869.869 0 0 1-.28.168.945.945 0 0 1-.33.059v-.003zm6.654-.422h-.635v.656h-.33v-1.607h1.045v.268h-.715v.415h.634v.267zm1.59-.11a.968.968 0 0 1-.084.416.642.642 0 0 1-.238.274l-.003.002a.653.653 0 0 1-.345.097h-.012.001a.672.672 0 0 1-.357-.096.651.651 0 0 1-.241-.269l-.002-.004a.932.932 0 0 1-.087-.397v-.014.001-.079c0-.158.029-.297.085-.417a.631.631 0 0 1 .588-.374h.012a.638.638 0 0 1 .598.374c.056.12.085.258.085.416v.071zm-.335-.073c.01-.168-.02-.296-.08-.384a.294.294 0 0 0-.244-.131h-.027a.293.293 0 0 0-.244.13v.01c-.06.087-.09.213-.092.38v.077c0 .164.03.29.09.38s.148.138.26.138h.015a.29.29 0 0 0 .243-.13c.06-.087.092-.215.092-.382v-.078zm1.41.418v-.009a.167.167 0 0 0-.06-.133.84.84 0 0 0-.236-.106 1.658 1.658 0 0 1-.283-.115l.01.005c-.183-.1-.274-.232-.274-.398 0-.087.024-.164.073-.232.05-.069.12-.122.21-.16s.195-.057.309-.057c.115 0 .217.021.307.063s.16.099.208.175c.05.075.075.162.075.258h-.33a.216.216 0 0 0-.07-.171.283.283 0 0 0-.195-.062.301.301 0 0 0-.19.052.16.16 0 0 0-.065.13v.005c0 .052.026.096.08.13s.13.069.232.1c.188.056.325.128.41.21a.422.422 0 0 1 .13.316c0 .139-.054.248-.159.328s-.244.118-.422.118a.83.83 0 0 1-.338-.06.548.548 0 0 1-.233-.182V21.5a.47.47 0 0 1-.08-.264v-.011h.331c0 .178.106.267.318.267a.314.314 0 0 0 .185-.047.159.159 0 0 0 .065-.128v-.007zm1.77-.917h-.49v1.338h-.33v-1.338h-.486v-.268h1.308v.268zm1.16.642h-.64v.43h.744v.266h-1.076v-1.607h1.074v.268h-.744v.383h.635v.257zm.898.108h-.264v.588h-.329v-1.607h.597c.19 0 .336.043.44.127s.153.204.153.358c0 .11-.024.2-.072.275a.484.484 0 0 1-.212.173h-.003l.347.657v.015h-.356l-.3-.587zm-.264-.268h.267a.28.28 0 0 0 .195-.063.227.227 0 0 0 .068-.163v-.013c0-.075-.02-.135-.064-.178s-.108-.065-.198-.065h-.266v.482zm2.007.29v.566h-.33v-1.607h.626c.12 0 .227.022.318.066s.163.107.212.189a.524.524 0 0 1 .074.277c0 .157-.054.282-.162.373s-.256.136-.447.136h-.29zm0-.268h.295c.088 0 .154-.021.2-.062.047-.041.07-.1.07-.177v-.011a.27.27 0 0 0-.07-.18.263.263 0 0 0-.192-.075h-.302v.504zm2.092.138h-.636v.43h.745v.266h-1.08v-1.607h1.076v.268h-.745v.383h.635v.257zm1.536-.642h-.494v1.338h-.33v-1.338h-.487v-.268H21.8v.268zm1.156.642h-.636v.43h.745v.266h-1.08v-1.607h1.075v.268h-.744v.383h.635v.257zm.9.108H23.6v.588h-.33v-1.607h.595c.19 0 .336.043.44.127s.153.204.153.358c0 .11-.024.2-.072.275a.484.484 0 0 1-.212.173h-.003l.347.657v.015h-.355l-.3-.587zm-.264-.268h.267a.275.275 0 0 0 .193-.063.226.226 0 0 0 .07-.163v-.013a.239.239 0 0 0-.066-.178c-.043-.043-.108-.065-.197-.065H23.6v.482zm1.945.435v-.01a.169.169 0 0 0-.066-.133.84.84 0 0 0-.24-.106 1.658 1.658 0 0 1-.282-.115l.01.005c-.183-.1-.274-.232-.274-.398 0-.087.024-.164.073-.232.05-.07.12-.122.211-.16s.195-.057.31-.057a.7.7 0 0 1 .306.063.476.476 0 0 1 .282.44h-.33a.216.216 0 0 0-.07-.17.283.283 0 0 0-.195-.061.301.301 0 0 0-.189.053.16.16 0 0 0-.068.13v.005c0 .052.027.096.08.13s.13.07.233.1c.188.057.325.129.41.21a.422.422 0 0 1 .13.317c0 .139-.054.248-.16.328s-.246.118-.423.118a.83.83 0 0 1-.338-.068.548.548 0 0 1-.232-.184V21.5a.47.47 0 0 1-.08-.264v-.011h.331c0 .178.105.267.318.267.08 0 .14-.016.184-.047a.159.159 0 0 0 .065-.128v-.007z" />
        </symbol>
        <symbol id="icon-client5" viewBox="0 0 32 32">
            <path
                d="M2.416 23.738c.124.14.189.316.186.496a.725.725 0 0 1-.068.348l.002-.004a.803.803 0 0 1-.221.282h-.002a1.322 1.322 0 0 1-.843.229h.004-1.475v-3.145h1.445a1.313 1.313 0 0 1 .805.21l-.005-.002a.739.739 0 0 1 .216.264.668.668 0 0 1 .065.325.686.686 0 0 1-.168.48.797.797 0 0 1-.435.245h-.005a.85.85 0 0 1 .498.27zm-1.73-.474h.62a.637.637 0 0 0 .395-.105.368.368 0 0 0 .104-.137l.001-.002a.349.349 0 0 0 .029-.139l-.001-.03v.001l.001-.027a.359.359 0 0 0-.03-.143l.001.002a.381.381 0 0 0-.103-.14.63.63 0 0 0-.406-.106h.002-.61v.825zm1.072 1.206a.4.4 0 0 0 .116-.142l.001-.002a.352.352 0 0 0 .033-.151l-.001-.025v.001l.001-.023a.376.376 0 0 0-.035-.157l.001.002a.408.408 0 0 0-.115-.144h-.012a.673.673 0 0 0-.377-.116l-.043.001H.68v.865h.657a.688.688 0 0 0 .414-.109zm3.616.621-.804-1.22h-.304v1.23h-.694v-3.15H4.88a1.367 1.367 0 0 1 .915.271l-.004-.003a.964.964 0 0 1 .311.634c.002.02.002.043.002.067a.936.936 0 0 1-.217.602l.001-.007a1.087 1.087 0 0 1-.619.32h-.006l.856 1.256h-.752zm-1.107-1.65h.564c.393 0 .589-.156.589-.474l.001-.025a.427.427 0 0 0-.034-.168l.001.002a.47.47 0 0 0-.112-.162.647.647 0 0 0-.39-.13l-.058.001h.002-.574l.007.957zm4.883 1.02H7.77l-.242.635h-.725l1.265-3.11h.784l1.26 3.11h-.725l-.238-.632zm-.184-.475-.504-1.326-.503 1.327h1.007zm4.914 1.11h-.686l-1.539-2.137v2.138h-.685V21.95h.685l1.54 2.15v-2.15h.685v3.145zm3.917-.752a1.44 1.44 0 0 1-.612.55l-.009.005a2.138 2.138 0 0 1-.909.199h-.059.003-1.222V21.95h1.222l.057-.001c.329 0 .641.07.922.199l-.014-.006c.263.122.48.313.621.55.141.255.215.537.215.824s-.074.57-.215.825zm-.785-.075c.186-.195.301-.46.303-.75a1.095 1.095 0 0 0-.304-.75 1.259 1.259 0 0 0-.863-.268h.004-.476v2.036h.476c.024.002.051.002.08.002.295 0 .567-.102.782-.272l-.003.002zM9.58 4.453s8.857 3.062 8.67 7.492v7.495s-8.853-3.063-8.668-7.494l-.004-7.493zm16.558 13.232a12.85 12.85 0 0 1 5.628-1.899v-2.347c-2.327.822-4.302 2.31-5.628 4.245z" />
            <path
                d="M25.134 18.392c1.369-2.524 3.742-4.472 6.633-5.444v-6.76S19.152 10.55 19.419 16.859v10.67s.562-.2 1.447-.57c0-.34 0-.686.04-1.03.262-2.93 1.782-5.644 4.229-7.547z" />
            <path
                d="M23.934 22.356c.066-.74.214-1.472.441-2.184-1.524 1.643-2.446 3.682-2.638 5.83-.017.177-.029.39-.033.606v.01a35.154 35.154 0 0 0 2.629-1.27l-.203.1a9.858 9.858 0 0 1-.237-2.18c0-.32.015-.638.044-.95l-.003.04zm.502.038a9.713 9.713 0 0 0 .167 2.861l-.011-.063c3.446-1.889 7.32-4.806 7.17-8.332v-.307c-2.462.252-4.766 1.238-6.557 2.805a9.547 9.547 0 0 0-.765 2.998l-.003.038z" />
        </symbol>
        <symbol id="icon-client6" viewBox="0 0 32 32">
            <path
                d="M16.145 15.628a.994.994 0 0 1-.206-.68v.003-.982c0-.31.068-.53.205-.69s.371-.24.703-.24c.312.001.534.068.665.201.143.17.213.378.197.587v.231h-.558v-.26c0-.07-.006-.14-.018-.207v.007a.226.226 0 0 0-.08-.133.317.317 0 0 0-.177-.055h-.025.001-.024a.343.343 0 0 0-.19.057.263.263 0 0 0-.091.146v.002a1.12 1.12 0 0 0-.022.223v1.21a.603.603 0 0 0 .072.337.257.257 0 0 0 .11.08h.002a.303.303 0 0 0 .145.02h-.001a.303.303 0 0 0 .198-.053h-.001a.238.238 0 0 0 .085-.143 1.26 1.26 0 0 0 .017-.238v-.24h.558v.22l.002.06a.895.895 0 0 1-.196.56v-.002c-.127.146-.346.22-.668.22s-.565-.079-.703-.24zm2.325.01c-.141-.153-.212-.376-.212-.67v-1.033c0-.292.07-.512.212-.662s.377-.224.708-.224c.328 0 .563.075.704.224.14.15.213.37.213.662v1.032c0 .292-.072.515-.215.669s-.377.23-.702.23-.565-.078-.708-.229zm.968-.247a.564.564 0 0 0 .067-.305v-1.264l.001-.034a.561.561 0 0 0-.068-.268l.001.003a.274.274 0 0 0-.112-.081l-.002-.001a.303.303 0 0 0-.11-.02l-.039.002h.002a.297.297 0 0 0-.15.02l.002-.002a.264.264 0 0 0-.114.093.545.545 0 0 0-.067.301v1.27a.567.567 0 0 0 .067.307.353.353 0 0 0 .118.076.393.393 0 0 0 .29 0h-.002a.363.363 0 0 0 .118-.077v-.01zm1.33-2.31h.6l.452 1.905.463-1.905h.585l.06 2.749h-.434l-.046-1.911-.446 1.911h-.347l-.463-1.918-.042 1.918h-.437l.054-2.749zm2.834 0h.937c.54 0 .81.26.81.781 0 .498-.284.748-.852.747h-.319v1.223h-.579l.003-2.749zm.8 1.174a.451.451 0 0 0 .32-.087l-.001.001a.448.448 0 0 0 .083-.31l.001-.03a.837.837 0 0 0-.03-.225l.001.006a.203.203 0 0 0-.043-.076.238.238 0 0 0-.071-.055l-.001-.012a.598.598 0 0 0-.22-.045h-.04.005-.225v.824h.225zm1.78-1.174h.621l.637 2.749h-.54l-.125-.634h-.554l-.13.634h-.546l.637-2.749zm.531 1.797-.218-1.154-.216 1.154h.432zm1.24-1.798h.405l.774 1.569v-1.57h.48v2.75h-.385l-.78-1.64v1.631h-.496l.001-2.749zm2.784 1.702-.643-1.697h.542l.393 1.09.369-1.09h.531l-.637 1.697v1.049h-.555v-1.048zm-13.7 2.25v.144h-.472v1.117h-.197v-1.117h-.474v-.144h1.144zm1.478 1.26h-.157a.075.075 0 0 1-.039-.011.064.064 0 0 1-.025-.029l-.137-.3h-.654l-.136.3a.075.075 0 0 1-.021.034.067.067 0 0 1-.039.012h-.156l.579-1.26h.2l.587 1.255zm-.957-.467h.546l-.232-.513a.817.817 0 0 1-.041-.113l-.002-.006-.022.067-.02.053-.23.512zm1.954.344a.729.729 0 0 0 .206-.015l-.004.001a.784.784 0 0 0 .083-.023c.026-.009.05-.02.077-.03v-.285h-.232a.048.048 0 0 1-.03-.01.028.028 0 0 1-.009-.01.02.02 0 0 1-.003-.01v-.099h.449v.483a.833.833 0 0 1-.248.101l-.006.001a1.028 1.028 0 0 1-.145.027 1.759 1.759 0 0 1-.169.008h-.007a.87.87 0 0 1-.29-.049l.007.002a.707.707 0 0 1-.232-.133l.001.001a.602.602 0 0 1-.147-.196l-.004-.004a.616.616 0 0 1-.054-.253v-.016c0-.092.02-.18.054-.26v.004a.576.576 0 0 1 .148-.2.706.706 0 0 1 .232-.13 1.08 1.08 0 0 1 .471-.037.813.813 0 0 1 .254.082c.035.02.07.042.101.066l-.055.078a.052.052 0 0 1-.019.017.06.06 0 0 1-.027.007.072.072 0 0 1-.036-.01c-.024-.01-.042-.02-.06-.03l.001.001a.459.459 0 0 0-.074-.033h-.003a.627.627 0 0 0-.1-.028l-.006-.001a.86.86 0 0 0-.14-.011h-.013a.674.674 0 0 0-.22.037l.002-.001a.434.434 0 0 0-.277.254v.003a.586.586 0 0 0 0 .424v-.004a.502.502 0 0 0 .513.284zm1.844-.02h.631v.144h-.824v-1.26h.197l-.004 1.116zm1.288.144h-.198v-1.26h.197v1.26zm.735-1.255a.1.1 0 0 1 .03.023l.84.95v-.045.001-.94h.17v1.266h-.107a.09.09 0 0 1-.037-.008h.001a.103.103 0 0 1-.03-.024l-.845-.95v.98h-.165v-1.26h.103c.011 0 .022.001.032.005zm2.504-.006v.14h-.7v.415h.567v.134h-.568v.431h.701v.14h-.903v-1.259h.904zM5.162 9.245l8.78 2.152v7.542l-8.78-2.151V9.245zM4.598 8.6v8.555l9.906 2.429V11.03L4.598 8.6z" />
            <path d="M9.908 23.555 0 21.124V12.57L9.908 15v8.555z" />
            <path
                d="m4.763 9.147 8.667 2.126-3.685 3.183-8.668-2.127 3.687-3.182zm-.165-.545L0 12.571l9.908 2.431 4.597-3.97-9.906-2.43zm5.867 14.472 4.04-3.49-4.04-.99v4.48z" />
        </symbol>
        <symbol id="icon-clock" viewBox="0 0 32 32">
            <path
                d="M31.296 15.301C31.296 6.849 24.441-.002 15.988 0 7.535.003.685 6.856.687 15.309c.002 6.788 4.422 12.543 10.541 14.545l.108.031a.668.668 0 0 0 .529-.065.643.643 0 0 0 .282-.352l.001-.005 3.865-12.25a1.913 1.913 0 1 0-.851-3.63l.01-.004L10.07 8.47a.638.638 0 0 0-.902.902l5.103 5.11a1.873 1.873 0 0 0 .542 2.305l.003.003-3.682 11.673C3.846 25.782.12 17.71 2.8 10.431S13.554-.573 20.832 2.108C28.11 4.79 31.836 12.862 29.155 20.14c-1.345 3.581-4.003 6.406-7.374 7.938l-.088.036-.398-1.874a.639.639 0 0 0-1.05-.343h.001l-3.837 3.425a.637.637 0 0 0 .226 1.084l.005.001 4.9 1.563a.637.637 0 0 0 .818-.744v.004l-.39-1.839c5.527-2.374 9.327-7.772 9.327-14.057V15.3v.002zm-15.304-.637a.638.638 0 0 1 0 1.276.638.638 0 0 1 0-1.276zm2.1 14.864 2.184-1.948.603 2.84-2.787-.892z"
                fill="var(--color1, #212121)" />
            <path
                d="M15.354 3.185V4.46a.638.638 0 0 0 1.276 0V3.185a.638.638 0 1 0-1.276 0zM3.876 14.664a.638.638 0 0 0 0 1.276h1.275a.638.638 0 0 0 0-1.276H3.876zm24.232 1.275a.638.638 0 0 0 0-1.276h-1.275a.638.638 0 0 0 0 1.276h1.275z"
                fill="var(--color2, #2196f3)" />
        </symbol>
        <symbol id="icon-computer" viewBox="0 0 32 32">
            <path
                d="M14.926 14.965h1.066v4.798h-1.066v-4.798zm4.264 2.132h1.066v2.665H19.19v-2.665zm-8.53 1.6h1.067v1.066h-1.066v-1.066zm-3.198-.534h1.066v1.6H7.462v-1.6z"
                fill="var(--color2, #2196f3)" />
            <path
                d="M1.599 28.291h25.586a1.6 1.6 0 0 0 1.599-1.599V24.56a1.6 1.6 0 0 0-1.599-1.599h-.533V9.667l3.028-2.868a1.608 1.608 0 1 0-.742-.752l-.004-.01-2.281 2.162v-1.23a1.6 1.6 0 0 0-1.6-1.6H3.732a1.6 1.6 0 0 0-1.6 1.6v15.992H1.6a1.6 1.6 0 0 0-1.6 1.6v2.13a1.6 1.6 0 0 0 1.6 1.6zM30.384 4.837a.533.533 0 0 1 0 1.066.533.533 0 0 1 0-1.066zM3.198 6.969c0-.294.24-.533.533-.533h21.323c.294 0 .533.239.533.533v2.239l-1.066 1.013V8.036a.534.534 0 0 0-.534-.534H4.798a.534.534 0 0 0-.534.533v13.327c0 .294.24.533.534.533h19.19a.534.534 0 0 0 .533-.533v-9.675l1.066-1.01V22.96H3.198V6.97zm4.798 6.93-.005-.01a1.6 1.6 0 1 0 1.112 2.747l1.853.93a.534.534 0 0 0 .636-.12l3.939-4.434 3.872 2.9a.534.534 0 0 0 .686-.04l3.365-3.186v8.13H5.33V8.567h18.126v2.66l-3.77 3.573-3.906-2.927a.532.532 0 0 0-.718.072L11.07 16.44l-1.493-.746c.011-.064.017-.128.02-.193a1.6 1.6 0 0 0-1.599-1.597zm.533 1.59a.533.533 0 0 1-1.066 0 .533.533 0 0 1 1.066 0v.001zm3.198 8.529h5.33v.534a.533.533 0 0 1-.533.533H12.26a.533.533 0 0 1-.534-.534v-.534zm-10.66.534c0-.294.238-.533.533-.533h9.062v.534a1.6 1.6 0 0 0 1.599 1.599h4.264a1.6 1.6 0 0 0 1.599-1.6v-.533h9.063c.294 0 .532.239.532.533v2.132a.533.533 0 0 1-.533.533H1.6a.533.533 0 0 1-.533-.533v-2.13z"
                fill="var(--color1, #212121)" />
        </symbol>
        <symbol id="icon-facebook1" viewBox="0 0 32 32">
            <path
                d="M21.328 5.312h2.923V.224A36.483 36.483 0 0 0 20.15 0h-.157H20c-4.213 0-7.1 2.65-7.1 7.52V12H8.25v5.688h4.646V32h5.699V17.69h4.459l.704-5.69H18.59V8.086c0-1.645.445-2.77 2.736-2.77z" />
        </symbol>
        <symbol id="icon-facebook2" viewBox="0 0 32 32">
            <path
                d="M21.328 5.312h2.923V.224A36.478 36.478 0 0 0 20.15 0h-.158H20c-4.213 0-7.1 2.65-7.1 7.52V12H8.25v5.688h4.646V32h5.699V17.69h4.459l.709-5.688h-5.171V8.088c0-1.645.443-2.77 2.734-2.77z"
                fill="var(--color4, #fff)" />
        </symbol>
        <symbol id="icon-instagram1" viewBox="0 0 32 32">
            <path
                d="M31.968 9.408c-.074-1.701-.349-2.869-.742-3.882a7.839 7.839 0 0 0-1.85-2.837l-.001-.001A7.893 7.893 0 0 0 26.598.86l-.054-.018C25.522.449 24.36.176 22.659.1c-1.712-.081-2.256-.1-6.6-.1s-4.89.019-6.595.094c-1.7.074-2.87.349-3.88.742a7.847 7.847 0 0 0-2.84 1.85v.001A7.9 7.9 0 0 0 .92 5.465l-.021.054C.507 6.539.233 7.7.158 9.401c-.082 1.712-.1 2.256-.1 6.602 0 4.344.018 4.888.093 6.595.075 1.701.35 2.869.744 3.882a7.915 7.915 0 0 0 1.849 2.837v.001a7.887 7.887 0 0 0 2.779 1.825l.054.018c1.019.395 2.182.672 3.882.744 1.707.075 2.25.096 6.595.096 4.346.003 4.89-.014 6.595-.091 1.7-.074 2.869-.35 3.882-.742a8.232 8.232 0 0 0 4.664-4.63l.019-.054c.394-1.02.669-2.182.744-3.882.075-1.707.093-2.251.093-6.595s-.006-4.888-.08-6.595zm-2.88 13.066c-.07 1.563-.333 2.406-.55 2.97a5.341 5.341 0 0 1-3.004 3.024l-.036.012c-.56.219-1.411.482-2.968.55-1.688.075-2.194.096-6.464.096-4.27 0-4.784-.021-6.464-.096-1.563-.069-2.406-.331-2.97-.55a4.953 4.953 0 0 1-1.836-1.192l-.001-.001a4.978 4.978 0 0 1-1.184-1.803l-.01-.034c-.21-.563-.48-1.413-.55-2.97-.07-1.688-.09-2.195-.09-6.464 0-4.27.02-4.784.1-6.464.069-1.563.33-2.406.549-2.97a4.897 4.897 0 0 1 1.19-1.837l.003-.002A4.972 4.972 0 0 1 6.606 3.56l.034-.011c.56-.22 1.41-.48 2.968-.55 1.688-.074 2.195-.093 6.464-.093 4.275 0 4.784.019 6.464.093 1.563.069 2.406.33 2.97.55a4.91 4.91 0 0 1 1.837 1.184c.528.52.93 1.145 1.189 1.84.218.56.48 1.41.549 2.969.075 1.688.096 2.194.096 6.464 0 4.269-.021 4.768-.096 6.458z" />
            <path
                d="M16.059 7.782a8.224 8.224 0 0 0-8.219 8.221 8.224 8.224 0 0 0 16.44.011v-.01a8.223 8.223 0 0 0-8.221-8.221zm0 13.552a5.333 5.333 0 0 1 .001-10.666h.001a5.334 5.334 0 1 1 0 10.668zM26.523 7.458l.001.055a1.92 1.92 0 1 1-3.84-.058v.003a1.92 1.92 0 0 1 3.84 0z" />
        </symbol>
        <symbol id="icon-instagram2" viewBox="0 0 32 32">
            <path
                d="M31.968 9.408c-.074-1.701-.349-2.869-.742-3.882a7.839 7.839 0 0 0-1.85-2.837l-.001-.001A7.893 7.893 0 0 0 26.598.86l-.054-.018C25.522.449 24.36.176 22.659.1c-1.712-.081-2.256-.1-6.6-.1s-4.89.019-6.595.094c-1.7.074-2.87.349-3.88.742a7.847 7.847 0 0 0-2.84 1.85v.001A7.9 7.9 0 0 0 .92 5.465l-.021.054C.507 6.539.233 7.7.158 9.401c-.082 1.712-.1 2.256-.1 6.602 0 4.344.018 4.888.093 6.595.075 1.701.35 2.869.744 3.882a7.915 7.915 0 0 0 1.849 2.837v.001a7.887 7.887 0 0 0 2.779 1.825l.054.018c1.019.395 2.182.672 3.882.744 1.707.075 2.25.096 6.595.096 4.346.003 4.89-.014 6.595-.091 1.7-.074 2.869-.35 3.882-.742a8.232 8.232 0 0 0 4.664-4.63l.019-.054c.394-1.02.669-2.182.744-3.882.075-1.707.093-2.251.093-6.595s-.006-4.888-.08-6.595zm-2.88 13.066c-.07 1.563-.333 2.406-.55 2.97a5.341 5.341 0 0 1-3.004 3.024l-.036.012c-.56.219-1.411.482-2.968.55-1.688.075-2.194.096-6.464.096-4.27 0-4.784-.021-6.464-.096-1.563-.069-2.406-.331-2.97-.55a4.953 4.953 0 0 1-1.836-1.192l-.001-.001a4.978 4.978 0 0 1-1.184-1.803l-.01-.034c-.21-.563-.48-1.413-.55-2.97-.07-1.688-.09-2.195-.09-6.464 0-4.27.02-4.784.1-6.464.069-1.563.33-2.406.549-2.97a4.897 4.897 0 0 1 1.19-1.837l.003-.002A4.972 4.972 0 0 1 6.606 3.56l.034-.011c.56-.22 1.41-.48 2.968-.55 1.688-.074 2.195-.093 6.464-.093 4.275 0 4.784.019 6.464.093 1.563.069 2.406.33 2.97.55a4.91 4.91 0 0 1 1.837 1.184c.528.52.93 1.145 1.189 1.84.218.56.48 1.41.549 2.969.075 1.688.096 2.194.096 6.464 0 4.269-.021 4.768-.096 6.458z"
                fill="var(--color4, #fff)" />
            <path
                d="M16.059 7.782a8.224 8.224 0 0 0-8.219 8.221v.002a8.222 8.222 0 1 0 16.444 0 8.222 8.222 0 0 0-8.222-8.222h-.002zm0 13.552a5.333 5.333 0 0 1 .001-10.666h.001a5.334 5.334 0 1 1 0 10.668zM26.523 7.458l.001.055a1.92 1.92 0 1 1-3.84-.058v.003a1.92 1.92 0 0 1 3.84 0z"
                fill="var(--color4, #fff)" />
        </symbol>
        <symbol id="icon-linkedin1" viewBox="0 0 32 32">
            <path
                d="M31.992 32H32V20.262c0-5.741-1.237-10.163-7.947-10.163-3.227 0-5.392 1.77-6.277 3.45h-.093v-2.912h-6.365v21.362h6.627V21.417c0-2.784.528-5.478 3.978-5.478 3.398-.01 3.448 3.17 3.448 5.65V32h6.621zM.528 10.635h6.635V32H.528V10.635zM3.843 0A3.843 3.843 0 0 0 0 3.843c0 2.12 1.722 3.878 3.843 3.878 2.12 0 3.842-1.757 3.842-3.878S5.965.002 3.845 0z" />
        </symbol>
        <symbol id="icon-linkedin2" viewBox="0 0 32 32">
            <path
                d="M31.992 32H32V20.262c0-5.741-1.237-10.163-7.947-10.163-3.227 0-5.392 1.77-6.277 3.45h-.093v-2.912h-6.365V32h6.627V21.418c0-2.784.528-5.48 3.978-5.48 3.398.003 3.448 3.182 3.448 5.66v10.403h6.621zM.528 10.635h6.635V32H.528V10.635zM3.843 0A3.843 3.843 0 0 0 0 3.843c0 2.12 1.722 3.878 3.843 3.878 2.12 0 3.842-1.757 3.842-3.878S5.965.002 3.845 0z"
                fill="var(--color4, #fff)" />
        </symbol>
        <symbol id="icon-messages" viewBox="0 0 32 32">
            <path
                d="M29 4H3C1.346 4 0 5.346 0 7v18c0 1.654 1.346 3 3 3h26c1.654 0 3-1.346 3-3V7c0-1.654-1.346-3-3-3zm0 2c.136 0 .266.028.384.078L16 17.678 2.616 6.078a.99.99 0 0 1 .383-.082H29zm0 20H3a1 1 0 0 1-1-1V8.19l13.344 11.566a.997.997 0 0 0 1.313 0h-.001L30 8.19V25a1 1 0 0 1-1 1z" />
        </symbol>
        <symbol id="icon-smartphone" viewBox="0 0 32 32">
            <path
                d="M23 0H9C7.346 0 6 1.346 6 3v26c0 1.654 1.346 3 3 3h14c1.654 0 3-1.346 3-3V3c0-1.654-1.346-3-3-3zM9 2h14a1 1 0 0 1 1 1v21H8V3a1 1 0 0 1 1-1zm14 28H9a1 1 0 0 1-1-1v-3h16v3a1 1 0 0 1-1 1z" />
            <path
                d="M10.708 27.478a.889.889 0 0 1 0 1.319v.001a1.048 1.048 0 0 1-1.417 0l.001.001a.888.888 0 0 1 0-1.323 1.048 1.048 0 0 1 1.417 0l-.001-.002z" />
        </symbol>
        <symbol id="icon-twitter1" viewBox="0 0 32 32">
            <path
                d="M32 6.078c-1.1.493-2.376.857-3.713 1.028l-.068.007a6.556 6.556 0 0 0 2.873-3.58l.013-.045a12.89 12.89 0 0 1-4.076 1.573l-.084.014A6.558 6.558 0 0 0 15.601 9.56v.002c0 .52.046 1.021.155 1.496-5.454-.266-10.28-2.88-13.522-6.86a6.531 6.531 0 0 0-.904 3.31v.001a6.57 6.57 0 0 0 2.913 5.453 6.448 6.448 0 0 1-2.996-.822l.033.016v.072a6.592 6.592 0 0 0 5.213 6.44l.043.008a6.403 6.403 0 0 1-1.662.215h-.06.002c-.42 0-.843-.024-1.242-.112.85 2.598 3.26 4.51 6.13 4.57a13.096 13.096 0 0 1-8.123 2.8h-.01c-.538 0-1.053-.026-1.57-.09a18.337 18.337 0 0 0 10.011 2.943h.063-.003c12.072 0 18.672-10 18.672-18.669 0-.288-.01-.57-.024-.848a13.198 13.198 0 0 0 3.258-3.358L32 6.08z" />
        </symbol>
        <symbol id="icon-twitter2" viewBox="0 0 32 32">
            <path
                d="M32 6.078c-1.1.493-2.376.857-3.713 1.028l-.068.007a6.556 6.556 0 0 0 2.873-3.58l.013-.045a12.89 12.89 0 0 1-4.076 1.573l-.084.014A6.558 6.558 0 0 0 15.601 9.56v.002c0 .52.046 1.021.155 1.496-5.454-.266-10.28-2.88-13.522-6.86a6.531 6.531 0 0 0-.904 3.31v.001a6.57 6.57 0 0 0 2.913 5.453 6.448 6.448 0 0 1-2.996-.822l.033.016v.072a6.592 6.592 0 0 0 5.213 6.44l.043.008a6.403 6.403 0 0 1-1.662.215h-.06.002c-.42 0-.843-.024-1.242-.112.85 2.598 3.26 4.51 6.13 4.57a13.096 13.096 0 0 1-8.123 2.8h-.01c-.538 0-1.053-.026-1.57-.09a18.337 18.337 0 0 0 10.011 2.943h.063-.003c12.072 0 18.672-10 18.672-18.669 0-.288-.01-.57-.024-.848a13.198 13.198 0 0 0 3.258-3.358L32 6.08z"
                fill="var(--color4, #fff)" />
        </symbol>
    </defs>
</svg>